<svg width="656.000000" height="196.000000" viewBox="0 0 656 196" fill="none" xmlns="http://www.w3.org/2000/svg" xmlns:xlink="http://www.w3.org/1999/xlink">
	<desc>
			Created with Pixso.
	</desc>
	<defs/>
	<rect id="Rectangle 3" y="-0.455078" width="93.714287" height="50.000000" fill="#FFFFFF" fill-opacity="1.000000"/>
	<rect id="Rectangle 4" x="93.714355" y="-0.455078" width="93.714287" height="50.000000" fill="#FBE54D" fill-opacity="1.000000"/>
	<rect id="Rectangle 5" x="187.428711" y="-0.455078" width="93.714287" height="50.000000" fill="#74FADB" fill-opacity="1.000000"/>
	<rect id="Rectangle 6" x="281.142578" y="-0.455078" width="93.714287" height="50.000000" fill="#68DC42" fill-opacity="1.000000"/>
	<rect id="Rectangle 7" x="374.857422" y="-0.455078" width="93.714287" height="50.000000" fill="#E83CF2" fill-opacity="1.000000"/>
	<rect id="Rectangle 8" x="468.571289" y="-0.455078" width="93.714287" height="50.000000" fill="#D52D25" fill-opacity="1.000000"/>
	<rect id="Rectangle 9" x="562.285645" y="-0.455078" width="93.714287" height="50.000000" fill="#0732B3" fill-opacity="1.000000"/>
	<path id="page not found 404" d="M62.93 117.45L57.24 117.45L57.24 77.54L80.04 77.54L80.04 80.4L82.88 80.4L82.88 83.25L85.73 83.25L85.73 97.5L82.88 97.5L82.88 100.36L80.04 100.36L80.04 103.21L62.93 103.21L62.93 117.45ZM92.86 117.45L87.17 117.45L87.17 108.92L90.02 108.92L90.02 100.36L92.86 100.36L92.86 91.8L95.71 91.8L95.71 83.25L98.57 83.25L98.57 77.54L107.13 77.54L107.13 83.25L109.97 83.25L109.97 91.8L112.82 91.8L112.82 100.36L115.66 100.36L115.66 108.92L118.53 108.92L118.53 117.45L112.82 117.45L112.82 108.92L92.86 108.92L92.86 117.45ZM145.59 117.45L131.33 117.45L131.33 114.61L128.48 114.61L128.48 111.76L125.64 111.76L125.64 108.92L122.79 108.92L122.79 86.09L125.64 86.09L125.64 83.25L128.48 83.25L128.48 80.4L131.33 80.4L131.33 77.54L148.44 77.54L148.44 80.4L151.28 80.4L151.28 83.25L154.15 83.25L154.15 86.09L156.99 86.09L156.99 91.8L151.28 91.8L151.28 88.96L148.44 88.96L148.44 86.09L145.59 86.09L145.59 83.25L134.19 83.25L134.19 86.09L131.33 86.09L131.33 88.96L128.48 88.96L128.48 106.05L131.33 106.05L131.33 108.92L134.19 108.92L134.19 111.76L145.59 111.76L145.59 108.92L148.44 108.92L148.44 106.05L151.28 106.05L151.28 103.21L142.75 103.21L142.75 97.5L156.99 97.5L156.99 117.45L151.28 117.45L151.28 111.76L148.44 111.76L148.44 114.61L145.59 114.61L145.59 117.45ZM191.19 117.45L162.7 117.45L162.7 77.54L191.19 77.54L191.19 83.25L168.39 83.25L168.39 93.23L188.35 93.23L188.35 98.94L168.39 98.94L168.39 111.76L191.19 111.76L191.19 117.45ZM213.99 117.45L208.3 117.45L208.3 77.54L216.84 77.54L216.84 83.25L219.7 83.25L219.7 88.96L222.55 88.96L222.55 94.65L225.39 94.65L225.39 100.36L228.26 100.36L228.26 106.05L231.1 106.05L231.1 77.54L236.79 77.54L236.79 117.45L228.26 117.45L228.26 111.76L225.39 111.76L225.39 106.05L222.55 106.05L222.55 100.36L219.7 100.36L219.7 94.65L216.84 94.65L216.84 88.96L213.99 88.96L213.99 117.45ZM268.17 117.45L251.06 117.45L251.06 114.61L248.21 114.61L248.21 111.76L245.37 111.76L245.37 108.92L242.52 108.92L242.52 86.09L245.37 86.09L245.37 83.25L248.21 83.25L248.21 80.4L251.06 80.4L251.06 77.54L268.17 77.54L268.17 80.4L271.01 80.4L271.01 83.25L273.88 83.25L273.88 86.09L276.72 86.09L276.72 108.92L273.88 108.92L273.88 111.76L271.01 111.76L271.01 114.61L268.17 114.61L268.17 117.45ZM296.7 117.45L291.01 117.45L291.01 83.25L279.61 83.25L279.61 77.54L308.1 77.54L308.1 83.25L296.7 83.25L296.7 117.45ZM329.44 117.45L323.75 117.45L323.75 77.54L352.24 77.54L352.24 83.25L329.44 83.25L329.44 94.65L349.39 94.65L349.39 100.36L329.44 100.36L329.44 117.45ZM380.73 117.45L363.62 117.45L363.62 114.61L360.77 114.61L360.77 111.76L357.93 111.76L357.93 108.92L355.08 108.92L355.08 86.09L357.93 86.09L357.93 83.25L360.77 83.25L360.77 80.4L363.62 80.4L363.62 77.54L380.73 77.54L380.73 80.4L383.57 80.4L383.57 83.25L386.44 83.25L386.44 86.09L389.28 86.09L389.28 108.92L386.44 108.92L386.44 111.76L383.57 111.76L383.57 114.61L380.73 114.61L380.73 117.45ZM417.79 117.45L400.68 117.45L400.68 114.61L397.84 114.61L397.84 111.76L394.99 111.76L394.99 77.54L400.68 77.54L400.68 108.92L403.53 108.92L403.53 111.76L414.95 111.76L414.95 108.92L417.79 108.92L417.79 77.54L423.48 77.54L423.48 111.76L420.64 111.76L420.64 114.61L417.79 114.61L417.79 117.45ZM434.9 117.45L429.21 117.45L429.21 77.54L437.75 77.54L437.75 83.25L440.61 83.25L440.61 88.96L443.46 88.96L443.46 94.65L446.3 94.65L446.3 100.36L449.17 100.36L449.17 106.05L452.01 106.05L452.01 77.54L457.7 77.54L457.7 117.45L449.17 117.45L449.17 111.76L446.3 111.76L446.3 106.05L443.46 106.05L443.46 100.36L440.61 100.36L440.61 94.65L437.75 94.65L437.75 88.96L434.9 88.96L434.9 117.45ZM486.23 117.45L463.43 117.45L463.43 77.54L486.23 77.54L486.23 80.4L489.08 80.4L489.08 83.25L491.92 83.25L491.92 86.09L494.79 86.09L494.79 108.92L491.92 108.92L491.92 111.76L489.08 111.76L489.08 114.61L486.23 114.61L486.23 117.45ZM534.64 117.45L528.93 117.45L528.93 108.92L511.84 108.92L511.84 100.36L514.68 100.36L514.68 94.65L517.53 94.65L517.53 88.96L520.37 88.96L520.37 83.25L523.24 83.25L523.24 77.54L534.64 77.54L534.64 104.63L537.48 104.63L537.48 108.92L534.64 108.92L534.64 117.45ZM561.73 117.45L547.46 117.45L547.46 114.61L544.62 114.61L544.62 111.76L541.77 111.76L541.77 83.25L544.62 83.25L544.62 80.4L547.46 80.4L547.46 77.54L561.73 77.54L561.73 80.4L564.57 80.4L564.57 83.25L567.42 83.25L567.42 111.76L564.57 111.76L564.57 114.61L561.73 114.61L561.73 117.45ZM595.91 117.45L590.2 117.45L590.2 108.92L573.11 108.92L573.11 100.36L575.95 100.36L575.95 94.65L578.8 94.65L578.8 88.96L581.64 88.96L581.64 83.25L584.51 83.25L584.51 77.54L595.91 77.54L595.91 104.63L598.75 104.63L598.75 108.92L595.91 108.92L595.91 117.45ZM62.93 97.5L77.19 97.5L77.19 94.65L80.04 94.65L80.04 86.09L77.19 86.09L77.19 83.25L62.93 83.25L62.93 97.5ZM253.92 111.76L265.32 111.76L265.32 108.92L268.17 108.92L268.17 106.05L271.01 106.05L271.01 88.96L268.17 88.96L268.17 86.09L265.32 86.09L265.32 83.25L253.92 83.25L253.92 86.09L251.06 86.09L251.06 88.96L248.21 88.96L248.21 106.05L251.06 106.05L251.06 108.92L253.92 108.92L253.92 111.76ZM366.48 111.76L377.88 111.76L377.88 108.92L380.73 108.92L380.73 106.05L383.57 106.05L383.57 88.96L380.73 88.96L380.73 86.09L377.88 86.09L377.88 83.25L366.48 83.25L366.48 86.09L363.62 86.09L363.62 88.96L360.77 88.96L360.77 106.05L363.62 106.05L363.62 108.92L366.48 108.92L366.48 111.76ZM469.12 111.76L483.39 111.76L483.39 108.92L486.23 108.92L486.23 106.05L489.08 106.05L489.08 88.96L486.23 88.96L486.23 86.09L483.39 86.09L483.39 83.25L469.12 83.25L469.12 111.76ZM517.53 104.63L528.93 104.63L528.93 83.25L526.08 83.25L526.08 88.96L523.24 88.96L523.24 94.65L520.37 94.65L520.37 100.36L517.53 100.36L517.53 104.63ZM550.31 111.76L558.86 111.76L558.86 108.92L561.73 108.92L561.73 86.09L558.86 86.09L558.86 83.25L550.31 83.25L550.31 86.09L547.46 86.09L547.46 108.92L550.31 108.92L550.31 111.76ZM578.8 104.63L590.2 104.63L590.2 83.25L587.35 83.25L587.35 88.96L584.51 88.96L584.51 94.65L581.64 94.65L581.64 100.36L578.8 100.36L578.8 104.63ZM95.71 103.21L109.97 103.21L109.97 100.36L107.13 100.36L107.13 91.8L104.26 91.8L104.26 86.09L101.42 86.09L101.42 91.8L98.57 91.8L98.57 100.36L95.71 100.36L95.71 103.21Z" fill="#000000" fill-opacity="1.000000" fill-rule="evenodd"/>
	<rect id="Rectangle 3" y="145.455078" width="93.714287" height="50.000000" fill="#FFFFFF" fill-opacity="1.000000"/>
	<rect id="Rectangle 4" x="93.714355" y="145.455078" width="93.714287" height="50.000000" fill="#FBE54D" fill-opacity="1.000000"/>
	<rect id="Rectangle 5" x="187.428711" y="145.455078" width="93.714287" height="50.000000" fill="#74FADB" fill-opacity="1.000000"/>
	<rect id="Rectangle 6" x="281.142578" y="145.455078" width="93.714287" height="50.000000" fill="#68DC42" fill-opacity="1.000000"/>
	<rect id="Rectangle 7" x="374.857422" y="145.455078" width="93.714287" height="50.000000" fill="#E83CF2" fill-opacity="1.000000"/>
	<rect id="Rectangle 8" x="468.571289" y="145.455078" width="93.714287" height="50.000000" fill="#D52D25" fill-opacity="1.000000"/>
	<rect id="Rectangle 9" x="562.285645" y="145.455078" width="93.714287" height="50.000000" fill="#0732B3" fill-opacity="1.000000"/>
</svg>
