<svg width="311.000000" height="253.000000" viewBox="0 0 311 253" fill="none" xmlns="http://www.w3.org/2000/svg" xmlns:xlink="http://www.w3.org/1999/xlink">
	<desc>
			Created with Pixso.
	</desc>
	<defs/>
	<mask id="mask18006_3364" mask-type="alpha" maskUnits="userSpaceOnUse" x="-0.367676" y="0.000000" width="310.735352" height="252.033447">
		<path id="Vector" d="M185.68 23.15C249.19 61.06 287.32 67.79 304.08 118.26C320.85 168.73 305 231.54 244.98 247.01C184.95 262.49 183.32 236.83 92.73 240.92C2.13 245 -30.05 113.22 30.86 53.09C91.77 -7.05 122.17 -14.75 185.68 23.15Z" fill="#FFFFFF" fill-opacity="1.000000" fill-rule="nonzero"/>
	</mask>
	<g mask="url(#mask18006_3364)">
		<path id="Vector" d="M135.74 210.23C182.53 210.23 220.45 172.31 220.45 125.53C220.45 78.74 182.53 40.82 135.74 40.82C88.96 40.82 51.04 78.74 51.04 125.53C51.04 172.31 88.96 210.23 135.74 210.23Z" fill="#000000" fill-opacity="1.000000" fill-rule="nonzero"/>
		<path id="Vector" d="M81.8 130.35C82.07 130.35 82.32 130.25 82.51 130.06C82.7 129.87 82.8 129.62 82.8 129.35C82.8 129.09 82.7 128.84 82.51 128.65C82.32 128.46 82.07 128.35 81.8 128.35C81.54 128.35 81.28 128.46 81.1 128.65C80.91 128.84 80.8 129.09 80.8 129.35C80.8 129.62 80.91 129.87 81.1 130.06C81.28 130.25 81.54 130.35 81.8 130.35ZM82.9 152.13C83.17 152.13 83.42 152.03 83.61 151.84C83.8 151.65 83.9 151.4 83.9 151.13C83.9 150.87 83.8 150.62 83.61 150.43C83.42 150.24 83.17 150.13 82.9 150.13C82.64 150.13 82.38 150.24 82.2 150.43C82.01 150.62 81.9 150.87 81.9 151.13C81.9 151.4 82.01 151.65 82.2 151.84C82.38 152.03 82.64 152.13 82.9 152.13ZM120.74 125.4C121.04 125.4 121.32 125.28 121.52 125.07C121.73 124.87 121.84 124.59 121.84 124.29C121.84 124 121.73 123.72 121.52 123.52C121.31 123.31 121.03 123.19 120.74 123.19C120.45 123.2 120.17 123.31 119.96 123.52C119.76 123.72 119.64 124 119.64 124.3C119.64 124.59 119.76 124.87 119.97 125.07C120.17 125.28 120.45 125.4 120.74 125.4ZM202.36 134.75C202.63 134.75 202.88 134.65 203.07 134.46C203.26 134.28 203.36 134.02 203.36 133.75C203.36 133.49 203.26 133.24 203.07 133.05C202.88 132.86 202.63 132.75 202.36 132.75C202.1 132.75 201.84 132.86 201.66 133.05C201.47 133.24 201.36 133.49 201.36 133.75C201.36 134.02 201.47 134.28 201.66 134.46C201.84 134.65 202.1 134.75 202.36 134.75ZM196.64 142.24C196.91 142.24 197.16 142.13 197.35 141.94C197.54 141.75 197.64 141.5 197.64 141.24C197.64 140.97 197.54 140.72 197.35 140.53C197.16 140.34 196.91 140.24 196.64 140.24C196.38 140.24 196.12 140.34 195.94 140.53C195.75 140.72 195.64 140.97 195.64 141.24C195.64 141.5 195.75 141.75 195.94 141.94C196.12 142.13 196.38 142.24 196.64 142.24ZM75.2 151.03C75.47 151.03 75.72 150.93 75.91 150.74C76.1 150.55 76.2 150.3 76.2 150.03C76.2 149.77 76.1 149.52 75.91 149.33C75.72 149.14 75.47 149.03 75.2 149.03C74.94 149.03 74.68 149.14 74.5 149.33C74.31 149.52 74.2 149.77 74.2 150.03C74.2 150.3 74.31 150.55 74.5 150.74C74.68 150.93 74.94 151.03 75.2 151.03ZM109.96 104.83C110.23 104.83 110.48 104.73 110.67 104.54C110.86 104.35 110.96 104.1 110.96 103.83C110.96 103.57 110.86 103.32 110.67 103.13C110.48 102.94 110.23 102.83 109.96 102.83C109.7 102.83 109.44 102.94 109.26 103.13C109.07 103.32 108.96 103.57 108.96 103.83C108.96 104.1 109.07 104.35 109.26 104.54C109.44 104.73 109.7 104.83 109.96 104.83ZM75.64 115.83C75.91 115.83 76.16 115.73 76.35 115.54C76.54 115.35 76.64 115.1 76.64 114.83C76.64 114.57 76.54 114.32 76.35 114.13C76.16 113.94 75.91 113.83 75.64 113.83C75.38 113.83 75.12 113.94 74.94 114.13C74.75 114.32 74.64 114.57 74.64 114.83C74.64 115.1 74.75 115.35 74.94 115.54C75.12 115.73 75.38 115.83 75.64 115.83ZM110.62 112.97C110.89 112.97 111.14 112.87 111.33 112.68C111.52 112.49 111.62 112.24 111.62 111.97C111.62 111.71 111.52 111.46 111.33 111.27C111.14 111.08 110.89 110.97 110.62 110.97C110.36 110.97 110.1 111.08 109.92 111.27C109.73 111.46 109.62 111.71 109.62 111.97C109.62 112.24 109.73 112.49 109.92 112.68C110.1 112.87 110.36 112.97 110.62 112.97ZM99.62 129.25C99.89 129.25 100.14 129.15 100.33 128.96C100.52 128.78 100.62 128.52 100.62 128.25C100.62 127.99 100.52 127.74 100.33 127.55C100.14 127.36 99.89 127.26 99.62 127.26C99.36 127.26 99.1 127.36 98.92 127.55C98.73 127.74 98.62 127.99 98.62 128.25C98.62 128.52 98.73 128.78 98.92 128.96C99.1 129.15 99.36 129.25 99.62 129.25ZM133.72 129.47C133.99 129.47 134.24 129.37 134.43 129.18C134.62 128.99 134.72 128.74 134.72 128.47C134.72 128.21 134.62 127.96 134.43 127.77C134.24 127.58 133.99 127.47 133.72 127.47C133.46 127.47 133.2 127.58 133.02 127.77C132.83 127.96 132.72 128.21 132.72 128.47C132.72 128.74 132.83 128.99 133.02 129.18C133.2 129.37 133.46 129.47 133.72 129.47ZM126.02 79.63C126.32 79.63 126.6 79.52 126.8 79.31C127.01 79.11 127.12 78.83 127.12 78.53C127.12 78.24 127.01 77.96 126.8 77.76C126.6 77.55 126.32 77.43 126.02 77.43C125.73 77.43 125.45 77.55 125.25 77.76C125.04 77.96 124.92 78.24 124.92 78.53C124.92 78.83 125.04 79.11 125.25 79.31C125.45 79.52 125.73 79.63 126.02 79.63ZM118.54 96.79C118.84 96.79 119.12 96.68 119.32 96.47C119.53 96.27 119.64 95.99 119.64 95.69C119.64 95.4 119.53 95.12 119.32 94.92C119.12 94.71 118.84 94.59 118.54 94.59C118.25 94.59 117.97 94.71 117.77 94.92C117.56 95.12 117.44 95.4 117.44 95.69C117.44 95.99 117.56 96.27 117.77 96.47C117.97 96.68 118.25 96.79 118.54 96.79ZM155.94 85.79C156.24 85.79 156.52 85.68 156.72 85.47C156.93 85.27 157.04 84.99 157.04 84.69C157.04 84.4 156.93 84.12 156.72 83.92C156.52 83.71 156.24 83.59 155.94 83.59C155.65 83.59 155.37 83.71 155.17 83.92C154.96 84.12 154.84 84.4 154.84 84.69C154.84 84.99 154.96 85.27 155.17 85.47C155.37 85.68 155.65 85.79 155.94 85.79ZM110.4 95.16C110.67 95.16 110.92 95.05 111.11 94.86C111.3 94.68 111.4 94.42 111.4 94.16C111.4 93.89 111.3 93.64 111.11 93.45C110.92 93.26 110.67 93.16 110.4 93.16C110.14 93.16 109.88 93.26 109.7 93.45C109.51 93.64 109.4 93.89 109.4 94.16C109.4 94.42 109.51 94.68 109.7 94.86C109.88 95.05 110.14 95.16 110.4 95.16ZM145.16 65.24C145.43 65.24 145.68 65.13 145.87 64.94C146.06 64.76 146.16 64.5 146.16 64.24C146.16 63.97 146.06 63.72 145.87 63.53C145.68 63.34 145.43 63.24 145.16 63.24C144.9 63.24 144.64 63.34 144.46 63.53C144.27 63.72 144.16 63.97 144.16 64.24C144.16 64.5 144.27 64.76 144.46 64.94C144.64 65.13 144.9 65.24 145.16 65.24ZM100.28 124.63C100.55 124.63 100.8 124.53 100.99 124.34C101.18 124.15 101.28 123.9 101.28 123.63C101.28 123.37 101.18 123.12 100.99 122.93C100.8 122.74 100.55 122.63 100.28 122.63C100.02 122.63 99.76 122.74 99.58 122.93C99.39 123.12 99.28 123.37 99.28 123.63C99.28 123.9 99.39 124.15 99.58 124.34C99.76 124.53 100.02 124.63 100.28 124.63ZM92.58 74.79C92.87 74.79 93.15 74.68 93.36 74.47C93.57 74.27 93.68 73.99 93.68 73.69C93.68 73.4 93.57 73.12 93.36 72.92C93.15 72.71 92.87 72.59 92.58 72.59C92.29 72.59 92.01 72.71 91.81 72.92C91.6 73.12 91.48 73.4 91.48 73.69C91.48 73.99 91.6 74.27 91.81 74.47C92.01 74.68 92.29 74.79 92.58 74.79ZM85.1 91.96C85.25 91.96 85.39 91.93 85.52 91.87C85.66 91.82 85.78 91.74 85.88 91.63C85.98 91.53 86.06 91.41 86.12 91.28C86.17 91.14 86.2 91 86.2 90.85C86.2 90.71 86.17 90.57 86.12 90.43C86.06 90.3 85.98 90.18 85.88 90.08C85.78 89.97 85.66 89.89 85.52 89.84C85.39 89.78 85.25 89.75 85.1 89.75C84.81 89.75 84.53 89.87 84.32 90.08C84.12 90.28 84 90.56 84 90.86C84 91.15 84.12 91.43 84.32 91.63C84.53 91.84 84.81 91.96 85.1 91.96ZM122.5 80.96C122.65 80.96 122.79 80.93 122.92 80.87C123.06 80.82 123.18 80.74 123.28 80.63C123.38 80.53 123.46 80.41 123.52 80.28C123.58 80.14 123.6 80 123.6 79.85C123.6 79.71 123.58 79.57 123.52 79.43C123.46 79.3 123.38 79.18 123.28 79.08C123.18 78.97 123.06 78.89 122.92 78.84C122.79 78.78 122.65 78.75 122.5 78.75C122.21 78.75 121.93 78.87 121.72 79.08C121.52 79.28 121.4 79.56 121.4 79.86C121.4 80.15 121.52 80.43 121.73 80.63C121.93 80.84 122.21 80.96 122.5 80.96ZM67.72 103.51C67.99 103.51 68.24 103.41 68.43 103.22C68.62 103.03 68.72 102.78 68.72 102.51C68.72 102.25 68.62 102 68.43 101.81C68.24 101.62 67.99 101.51 67.72 101.51C67.46 101.51 67.2 101.62 67.02 101.81C66.83 102 66.72 102.25 66.72 102.51C66.72 102.78 66.83 103.03 67.02 103.22C67.2 103.41 67.46 103.51 67.72 103.51ZM111.72 60.39C111.99 60.39 112.24 60.29 112.43 60.1C112.62 59.91 112.72 59.66 112.72 59.39C112.72 59.13 112.62 58.87 112.43 58.69C112.24 58.5 111.99 58.39 111.72 58.39C111.46 58.39 111.2 58.5 111.02 58.69C110.83 58.87 110.72 59.13 110.72 59.39C110.72 59.66 110.83 59.91 111.02 60.1C111.2 60.29 111.46 60.39 111.72 60.39ZM110.84 76.24C111.11 76.24 111.36 76.13 111.55 75.94C111.74 75.76 111.84 75.5 111.84 75.24C111.84 74.97 111.74 74.72 111.55 74.53C111.36 74.34 111.11 74.24 110.84 74.24C110.58 74.24 110.32 74.34 110.14 74.53C109.95 74.72 109.84 74.97 109.84 75.24C109.84 75.5 109.95 75.76 110.14 75.94C110.32 76.13 110.58 76.24 110.84 76.24ZM154.62 77.78C154.89 77.78 155.14 77.67 155.33 77.48C155.52 77.3 155.62 77.04 155.62 76.78C155.62 76.51 155.52 76.26 155.33 76.07C155.14 75.88 154.89 75.78 154.62 75.78C154.36 75.78 154.1 75.88 153.92 76.07C153.73 76.26 153.62 76.51 153.62 76.78C153.62 77.04 153.73 77.3 153.92 77.48C154.1 77.67 154.36 77.78 154.62 77.78ZM134.82 89.66C135.09 89.66 135.34 89.55 135.53 89.36C135.72 89.18 135.82 88.92 135.82 88.66C135.82 88.39 135.72 88.14 135.53 87.95C135.34 87.76 135.09 87.66 134.82 87.66C134.56 87.66 134.3 87.76 134.12 87.95C133.93 88.14 133.82 88.39 133.82 88.66C133.82 88.92 133.93 89.18 134.12 89.36C134.3 89.55 134.56 89.66 134.82 89.66ZM168.92 89.87C169.19 89.87 169.44 89.77 169.63 89.58C169.82 89.39 169.92 89.14 169.92 88.87C169.92 88.61 169.82 88.35 169.63 88.17C169.44 87.98 169.19 87.87 168.92 87.87C168.66 87.87 168.4 87.98 168.22 88.17C168.03 88.35 167.92 88.61 167.92 88.87C167.92 89.14 168.03 89.39 168.22 89.58C168.4 89.77 168.66 89.87 168.92 89.87Z" fill="#FFFFFF" fill-opacity="1.000000" fill-rule="nonzero"/>
		<path id="Vector" d="M206.36 189.15L196.99 198.52L219.12 220.65L228.49 211.28L206.36 189.15Z" fill="#541F9D" fill-opacity="1.000000" fill-rule="evenodd"/>
		<path id="Vector" d="M183.52 196.77L204.9 175.39L214.56 185.05C216.12 186.6 216.99 188.71 216.99 190.91C216.99 193.11 216.12 195.21 214.56 196.77L204.9 206.43C203.34 207.99 201.24 208.86 199.04 208.86C196.84 208.86 194.74 207.99 193.18 206.43L183.52 196.77Z" fill="#BD93F7" fill-opacity="1.000000" fill-rule="evenodd"/>
		<path id="Vector" d="M222.54 206.43L214.56 214.41C208.27 220.7 208.27 230.9 214.56 237.19L247.76 270.38C254.05 276.67 264.25 276.67 270.54 270.38L278.51 262.41C284.8 256.12 284.8 245.92 278.51 239.63L245.32 206.43C239.03 200.14 228.83 200.14 222.54 206.43Z" fill="#BD93F7" fill-opacity="1.000000" fill-rule="evenodd"/>
		<path id="Vector" d="M194.21 66.28C161.13 33.2 107.49 33.2 74.41 66.28C41.33 99.36 41.33 153 74.41 186.08C107.49 219.16 161.13 219.16 194.21 186.08C227.29 153 227.29 99.36 194.21 66.28Z" stroke="#9854F6" stroke-opacity="1.000000" stroke-width="20.711000"/>
		<mask id="mask18006_3374" mask-type="alpha" maskUnits="userSpaceOnUse" x="59.692200" y="32.119629" width="192.663391" height="168.519989">
			<path id="Vector" d="M134.27 200.64C175.46 200.64 208.85 167.25 208.85 126.06C208.85 112.2 258.33 68.22 251.75 57.1C238.76 35.17 166.73 32.11 139.4 32.11C98.21 32.11 59.69 84.87 59.69 126.06C59.69 167.25 93.08 200.64 134.27 200.64Z" fill="#FFFFFF" fill-opacity="1.000000" fill-rule="nonzero"/>
		</mask>
		<g mask="url(#mask18006_3374)">
			<path id="Vector" d="M230.8 73.03C231.26 77.39 230.16 81.77 227.69 85.4L189.47 141.42L199.56 162.13C186.85 185.09 162.37 200.64 134.27 200.64C132.07 200.64 129.87 200.54 127.68 200.35L123.45 190.82L122.05 199.64C107.73 197.28 94.79 190.84 84.45 181.56L86.77 157.72C87.05 154.83 88.04 152.06 89.65 149.64C91.26 147.23 93.45 145.25 96.01 143.89L135.92 122.63L162.43 99.51L186.89 78.3L127.99 79.64L127.21 65.93L151.83 62.84L210.47 56.61C220.62 55.53 229.72 62.88 230.8 73.03Z" fill="#FFFFFF" fill-opacity="1.000000" fill-rule="evenodd"/>
			<path id="Vector" d="M127.26 129.09L118.84 109.24L136.96 101.55L145.39 121.4L127.26 129.09Z" fill="#FFFFFF" fill-opacity="1.000000" fill-rule="evenodd"/>
			<path id="Vector" d="M127.26 129.09L118.84 109.24L136.96 101.55L145.39 121.4" stroke="#000000" stroke-opacity="1.000000" stroke-width="1.320000" stroke-linejoin="round" stroke-linecap="round"/>
			<mask id="mask18006_3381" mask-type="alpha" maskUnits="userSpaceOnUse" x="118.840210" y="101.558594" width="26.066833" height="30.555573">
				<path id="Vector" d="M118.84 109.24L136.96 101.55L144.12 118.42C146.24 123.42 143.91 129.2 138.9 131.33C133.9 133.45 128.12 131.11 126 126.11L118.84 109.24Z" fill="#FFFFFF" fill-opacity="1.000000" fill-rule="nonzero"/>
			</mask>
			<g mask="url(#mask18006_3381)">
				<path id="Vector" d="M139.37 112.45C150.68 107.65 156.25 95.3 151.81 84.85C147.38 74.4 134.62 69.82 123.31 74.62C112.01 79.42 106.44 91.77 110.88 102.22C115.31 112.67 128.07 117.25 139.37 112.45Z" fill="#000000" fill-opacity="1.000000" fill-rule="nonzero"/>
			</g>
			<path id="Vector" d="M114.07 65.6L108.99 67.76C101.29 71.03 97.7 79.92 100.97 87.63L105.7 98.78C108.97 106.48 117.87 110.08 125.57 106.81L130.65 104.65C138.35 101.38 141.94 92.49 138.67 84.79L133.93 73.64C130.66 65.93 121.77 62.34 114.07 65.6Z" fill="#000000" fill-opacity="1.000000" fill-rule="nonzero"/>
			<path id="Vector" d="M136.22 84.32L137.94 83.26C138.42 82.96 138.95 82.78 139.51 82.73C140.06 82.67 140.63 82.75 141.15 82.95C141.67 83.14 142.14 83.46 142.52 83.87C142.9 84.27 143.19 84.76 143.35 85.3L143.4 85.46C143.82 86.84 143.82 88.31 143.39 89.69C142.95 91.07 142.12 92.28 140.98 93.18L140.23 93.77L136.22 84.32Z" fill="#FFFFFF" fill-opacity="1.000000" fill-rule="evenodd"/>
			<path id="Vector" d="M137.94 83.26C138.42 82.96 138.95 82.78 139.51 82.73C140.06 82.67 140.63 82.75 141.15 82.95C141.67 83.14 142.14 83.46 142.52 83.87C142.9 84.27 143.19 84.76 143.35 85.3L143.4 85.46C143.82 86.84 143.82 88.31 143.39 89.69C142.95 91.07 142.12 92.28 140.98 93.18L140.23 93.77L136.22 84.32L137.94 83.26Z" stroke="#000000" stroke-opacity="1.000000" stroke-width="1.320000" stroke-linejoin="round"/>
			<path id="Vector" d="M139.4 86.32L140.65 89.27M140.18 88.17L141.09 86.48" stroke="#000000" stroke-opacity="1.000000" stroke-width="1.320000" stroke-linejoin="round"/>
			<path id="Vector" d="M107.2 96.64L105.23 97.14C104.69 97.28 104.19 97.54 103.76 97.9C103.34 98.26 103 98.72 102.78 99.23C102.56 99.74 102.46 100.3 102.49 100.86C102.51 101.42 102.67 101.96 102.94 102.45L103.02 102.59C103.72 103.86 104.79 104.88 106.08 105.53C107.37 106.17 108.83 106.41 110.26 106.22L111.21 106.09L107.2 96.64Z" fill="#FFFFFF" fill-opacity="1.000000" fill-rule="evenodd"/>
			<path id="Vector" d="M105.23 97.14C104.69 97.28 104.19 97.54 103.76 97.9C103.34 98.26 103 98.72 102.78 99.23C102.56 99.74 102.46 100.3 102.49 100.86C102.51 101.42 102.67 101.96 102.94 102.45L103.02 102.59C103.72 103.86 104.79 104.88 106.08 105.53C107.37 106.17 108.83 106.41 110.26 106.22L111.21 106.09L107.2 96.64L105.23 97.14Z" stroke="#000000" stroke-opacity="1.000000" stroke-width="1.320000" stroke-linejoin="round"/>
			<path id="Vector" d="M106.43 100.32L107.68 103.26M107.21 102.17L105.36 101.65" stroke="#000000" stroke-opacity="1.000000" stroke-width="1.320000" stroke-linejoin="round"/>
			<path id="Vector" d="M134.31 79.84L138.75 90.3C142.15 98.31 138.41 107.57 130.4 110.97C122.39 114.37 113.14 110.63 109.74 102.61L105.3 92.15C101.89 84.13 105.63 74.88 113.64 71.48C121.65 68.08 130.9 71.82 134.31 79.84Z" fill="#FFFFFF" fill-opacity="1.000000" fill-rule="evenodd"/>
			<path id="Vector" d="M138.75 90.3C142.15 98.31 138.41 107.57 130.4 110.97C122.39 114.37 113.14 110.63 109.74 102.61L105.3 92.15C101.89 84.13 105.63 74.88 113.64 71.48C121.65 68.08 130.9 71.82 134.31 79.84L138.75 90.3Z" stroke="#000000" stroke-opacity="1.000000" stroke-width="1.320000" stroke-linejoin="round"/>
			<path id="Vector" d="M127.44 103.02C128.74 102.47 129.78 101.42 130.31 100.1C130.84 98.79 130.83 97.31 130.28 96.01M122.11 93.77L123.09 97.74L125.28 97.22" stroke="#000000" stroke-opacity="1.000000" stroke-width="1.320000" stroke-linejoin="round"/>
			<path id="Vector" d="M116.51 92.91C116.13 92 114.54 91.81 112.96 92.48C111.38 93.15 110.41 94.43 110.8 95.33C111.18 96.24 112.77 96.43 114.35 95.76C115.93 95.09 116.89 93.81 116.51 92.91Z" stroke="#000000" stroke-opacity="1.000000" stroke-width="0.730000" stroke-linejoin="round"/>
			<path id="Vector" d="M114.35 95.76C115.3 95.36 115.75 94.3 115.37 93.39C114.98 92.49 113.9 92.08 112.96 92.48C112.01 92.88 111.56 93.94 111.94 94.85C112.32 95.75 113.4 96.16 114.35 95.76Z" fill="#000000" fill-opacity="1.000000" fill-rule="nonzero"/>
			<path id="Vector" d="M132.34 86.19C131.95 85.29 130.36 85.1 128.78 85.76C127.21 86.43 126.24 87.71 126.62 88.62C127.01 89.52 128.6 89.71 130.17 89.04C131.75 88.37 132.72 87.1 132.34 86.19Z" stroke="#000000" stroke-opacity="1.000000" stroke-width="0.730000" stroke-linejoin="round"/>
			<path id="Vector" d="M130.17 89.04C131.12 88.64 131.58 87.58 131.19 86.68C130.81 85.77 129.73 85.36 128.78 85.76C127.84 86.17 127.38 87.23 127.77 88.13C128.15 89.03 129.23 89.44 130.17 89.04Z" fill="#000000" fill-opacity="1.000000" fill-rule="nonzero"/>
			<path id="Vector" d="M118.02 60.52C120.58 60.3 122.09 61.59 122.54 64.4C125.63 63.63 128.52 63.51 131.23 64.02C137.27 65.18 139.53 71.71 136.48 77.52C136.75 78.96 137.04 80.71 137.37 82.77C136.52 83.66 135.92 84.05 135.57 83.93C134.45 83.53 133.38 82.98 132.41 82.29C129.68 84.4 125.88 86.04 120.87 86.72C113.62 87.7 108.9 86.77 106.71 83.92C107.21 88.47 107.08 92.4 106.29 95.7C100.06 92.18 96.76 88.23 96.4 83.86C96.07 80 97.64 77.82 101.1 77.32C102.03 71.8 110.92 61.14 118.02 60.52Z" fill="#000000" fill-opacity="1.000000" fill-rule="evenodd"/>
			<path id="Vector" d="M106.29 95.7C100.65 92.37 96.76 88.23 96.4 83.86C96.07 80 97.64 77.82 101.1 77.32C102.03 71.8 110.92 61.14 118.02 60.52C120.58 60.3 122.09 61.59 122.54 64.4C125.63 63.63 128.52 63.51 131.23 64.02C136.53 65.03 137.93 70.77 136.37 75.95C136.75 78.03 137 80.63 137.37 82.77" stroke="#FFFFFF" stroke-opacity="1.000000" stroke-width="0.880000" stroke-linejoin="round" stroke-linecap="round"/>
			<path id="Vector" d="M124.62 197.95L120.85 190.29" stroke="#000000" stroke-opacity="1.000000" stroke-width="1.320000" stroke-linejoin="round" stroke-linecap="round"/>
			<path id="Vector" d="M117.44 138.21L144.91 141.63L154.84 116.38" stroke="#000000" stroke-opacity="1.000000" stroke-width="1.320000" stroke-linejoin="round"/>
			<path id="Vector" d="M146.76 48.14L149 93.67L165.69 91.94L151.24 108.87L211.27 236.33L230.37 200.17L196.2 138.86L231.36 84.35C239.26 72.1 235.74 55.76 223.49 47.85C218.67 44.73 212.96 43.28 207.24 43.7L146.76 48.14Z" fill="#EAEBED" fill-opacity="1.000000" fill-rule="evenodd"/>
			<path id="Vector" d="M149 93.67L165.69 91.94L151.24 108.87L211.27 236.33L230.37 200.17L196.2 138.86L231.36 84.35C239.26 72.1 235.74 55.76 223.49 47.85C218.67 44.73 212.96 43.28 207.24 43.7L146.76 48.14L149 93.67Z" stroke="#000000" stroke-opacity="1.000000" stroke-width="1.320000" stroke-linejoin="round"/>
			<path id="Vector" d="M164.76 93.1L174.41 80.9" stroke="#000000" stroke-opacity="1.000000" stroke-width="1.320000" stroke-linejoin="round" stroke-linecap="round"/>
			<path id="Vector" d="M162.56 96.01L168.04 128.47L176.06 126.88C177.02 126.69 178 126.7 178.94 126.91C179.89 127.11 180.78 127.51 181.57 128.08C182.35 128.65 183.01 129.38 183.5 130.21C184 131.05 184.31 131.98 184.43 132.94L191.38 190.29L162.56 96.01Z" fill="#EAEBED" fill-opacity="1.000000" fill-rule="evenodd"/>
			<path id="Vector" d="M162.56 96.01L168.04 128.47L176.06 126.88C177.02 126.69 178 126.7 178.94 126.91C179.89 127.11 180.78 127.51 181.57 128.08C182.35 128.65 183.01 129.38 183.5 130.21C184 131.05 184.31 131.98 184.43 132.94L191.38 190.29" stroke="#000000" stroke-opacity="1.000000" stroke-width="1.320000" stroke-linejoin="round"/>
			<path id="Vector" d="M116.19 132.88L169.8 254.97L149.91 264.11L122.74 208.54L118.84 225.64L80.93 212.28L86.65 157.99C86.96 155.01 88 152.15 89.67 149.66C91.34 147.16 93.59 145.11 96.22 143.69L116.19 132.88Z" fill="#EAEBED" fill-opacity="1.000000" fill-rule="evenodd"/>
			<path id="Vector" d="M169.8 254.97L149.91 264.11L122.74 208.54L118.84 225.64L80.93 212.28L86.65 157.99C86.96 155.01 88 152.15 89.67 149.66C91.34 147.16 93.59 145.11 96.22 143.69L116.19 132.88L169.8 254.97Z" stroke="#000000" stroke-opacity="1.000000" stroke-width="1.320000" stroke-linejoin="round"/>
			<path id="Vector" d="M197.08 140.42L193.27 133.76" stroke="#000000" stroke-opacity="1.000000" stroke-width="1.320000" stroke-linejoin="round" stroke-linecap="round"/>
			<path id="Vector" d="M102.96 139.49L122.5 162.1L117.59 173.67C117.13 174.75 116.97 175.95 117.13 177.12C117.28 178.29 117.75 179.4 118.49 180.33L157.04 229.23L102.96 139.49Z" fill="#EAEBED" fill-opacity="1.000000" fill-rule="evenodd"/>
			<path id="Vector" d="M102.96 139.49L122.5 162.1L117.59 173.67C117.13 174.75 116.97 175.95 117.13 177.12C117.28 178.29 117.75 179.4 118.49 180.33L157.04 229.23" stroke="#000000" stroke-opacity="1.000000" stroke-width="1.320000" stroke-linejoin="round"/>
		</g>
		<path id="Vector" d="M143.16 79.22L95.61 83.09C93.97 83.22 92.34 82.72 91.05 81.69C89.77 80.66 88.92 79.18 88.69 77.55C88.58 76.76 88.63 75.96 88.83 75.19C89.03 74.42 89.37 73.7 89.85 73.06C90.33 72.42 90.93 71.89 91.62 71.49C92.3 71.08 93.06 70.82 93.85 70.71L93.88 70.7L145.7 63.66L143.16 79.22Z" fill="#FFFFFF" fill-opacity="1.000000" fill-rule="evenodd"/>
		<path id="Vector" d="M143.16 79.22L95.61 83.09C93.97 83.22 92.34 82.72 91.05 81.69C89.77 80.66 88.92 79.18 88.69 77.55C88.58 76.76 88.63 75.96 88.83 75.19C89.03 74.42 89.37 73.7 89.85 73.06C90.33 72.42 90.93 71.89 91.62 71.49C92.3 71.08 93.06 70.82 93.85 70.71L93.88 70.7L145.7 63.66" stroke="#000000" stroke-opacity="1.000000" stroke-width="1.716000" stroke-linejoin="round" stroke-linecap="round"/>
		<path id="Vector" d="M143.16 79.22L109.83 81.22C108.18 81.32 106.55 80.79 105.26 79.74C103.98 78.69 103.14 77.19 102.91 75.55C102.8 74.77 102.85 73.97 103.04 73.2C103.24 72.43 103.59 71.7 104.07 71.07C104.55 70.44 105.15 69.9 105.83 69.5C106.51 69.09 107.27 68.83 108.06 68.72L108.09 68.71L145.7 63.66L143.16 79.22Z" fill="#FFFFFF" fill-opacity="1.000000" fill-rule="evenodd"/>
		<path id="Vector" d="M143.16 79.22L109.83 81.22C108.18 81.32 106.55 80.79 105.26 79.74C103.98 78.69 103.14 77.19 102.91 75.55C102.8 74.77 102.85 73.97 103.04 73.2C103.24 72.43 103.59 71.7 104.07 71.07C104.55 70.44 105.15 69.9 105.83 69.5C106.51 69.09 107.27 68.83 108.06 68.72L108.09 68.71L145.7 63.66" stroke="#000000" stroke-opacity="1.000000" stroke-width="1.320000" stroke-linejoin="round" stroke-linecap="round"/>
		<path id="Vector" d="M88.27 173.83C88.66 173.07 88.9 172.24 88.96 171.38C89.03 170.53 88.93 169.67 88.66 168.86C88.4 168.04 87.98 167.29 87.42 166.64C86.87 165.99 86.19 165.45 85.42 165.06C84.66 164.67 83.83 164.44 82.98 164.37C82.12 164.3 81.26 164.41 80.45 164.67C79.63 164.94 78.88 165.36 78.23 165.91C77.58 166.47 77.04 167.15 76.65 167.91L70.14 180.7C69.74 181.46 69.5 182.3 69.43 183.15C69.36 184.01 69.46 184.87 69.72 185.69C69.99 186.51 70.41 187.26 70.97 187.92C71.52 188.57 72.21 189.11 72.97 189.5C73.74 189.89 74.57 190.13 75.43 190.19C76.29 190.26 77.15 190.15 77.96 189.89C78.78 189.62 79.54 189.19 80.19 188.63C80.84 188.07 81.37 187.39 81.76 186.62L88.27 173.83Z" fill="#FFFFFF" fill-opacity="1.000000" fill-rule="nonzero"/>
		<path id="Vector" d="M88.96 171.38C89.03 170.53 88.93 169.67 88.66 168.86C88.4 168.04 87.98 167.29 87.42 166.64C86.87 165.99 86.19 165.45 85.42 165.06C84.66 164.67 83.83 164.44 82.98 164.37C82.12 164.3 81.26 164.41 80.45 164.67C79.63 164.94 78.88 165.36 78.23 165.91C77.58 166.47 77.04 167.15 76.65 167.91L70.14 180.7C69.74 181.46 69.5 182.3 69.43 183.15C69.36 184.01 69.46 184.87 69.72 185.69C69.99 186.51 70.41 187.26 70.97 187.92C71.52 188.57 72.21 189.11 72.97 189.5C73.74 189.89 74.57 190.13 75.43 190.19C76.29 190.26 77.15 190.15 77.96 189.89C78.78 189.62 79.54 189.19 80.19 188.63C80.84 188.07 81.37 187.39 81.76 186.62L88.27 173.83C88.66 173.07 88.9 172.24 88.96 171.38Z" stroke="#000000" stroke-opacity="1.000000" stroke-width="1.320000" stroke-linejoin="round"/>
		<path id="Vector" d="M99.9 179.75C100.3 178.99 100.55 178.15 100.62 177.29C100.7 176.43 100.61 175.56 100.34 174.74C100.08 173.92 99.66 173.15 99.1 172.49C98.54 171.83 97.86 171.29 97.09 170.9C96.32 170.51 95.48 170.27 94.62 170.21C93.75 170.14 92.89 170.25 92.07 170.52C91.25 170.8 90.49 171.23 89.84 171.8C89.19 172.37 88.66 173.06 88.28 173.83L81.76 186.62C81.37 187.38 81.13 188.22 81.06 189.07C80.98 189.93 81.08 190.79 81.35 191.61C81.61 192.43 82.03 193.19 82.59 193.84C83.15 194.5 83.83 195.03 84.59 195.42C85.36 195.81 86.2 196.05 87.05 196.11C87.91 196.18 88.77 196.08 89.59 195.81C90.4 195.54 91.16 195.11 91.81 194.55C92.46 193.99 92.99 193.31 93.38 192.54L99.9 179.75Z" fill="#FFFFFF" fill-opacity="1.000000" fill-rule="nonzero"/>
		<path id="Vector" d="M100.62 177.29C100.7 176.43 100.61 175.56 100.34 174.74C100.08 173.92 99.66 173.15 99.1 172.49C98.54 171.83 97.86 171.29 97.09 170.9C96.32 170.51 95.48 170.27 94.62 170.21C93.75 170.14 92.89 170.25 92.07 170.52C91.25 170.8 90.49 171.23 89.84 171.8C89.19 172.37 88.66 173.06 88.28 173.83L81.76 186.62C81.37 187.38 81.13 188.22 81.06 189.07C80.98 189.93 81.08 190.79 81.35 191.61C81.61 192.43 82.03 193.19 82.59 193.84C83.15 194.5 83.83 195.03 84.59 195.42C85.36 195.81 86.2 196.05 87.05 196.11C87.91 196.18 88.77 196.08 89.59 195.81C90.4 195.54 91.16 195.11 91.81 194.55C92.46 193.99 92.99 193.31 93.38 192.54L99.9 179.75C100.3 178.99 100.55 178.15 100.62 177.29Z" stroke="#000000" stroke-opacity="1.000000" stroke-width="1.320000" stroke-linejoin="round"/>
		<path id="Vector" d="M111.52 185.68C111.91 184.91 112.15 184.08 112.22 183.22C112.3 182.36 112.2 181.5 111.93 180.68C111.67 179.87 111.25 179.11 110.69 178.45C110.13 177.8 109.45 177.26 108.69 176.87C107.92 176.48 107.08 176.25 106.23 176.18C105.37 176.11 104.51 176.22 103.69 176.49C102.88 176.75 102.12 177.18 101.47 177.74C100.82 178.3 100.29 178.99 99.9 179.76L93.38 192.54C92.98 193.31 92.73 194.14 92.66 195C92.58 195.86 92.67 196.73 92.94 197.56C93.2 198.38 93.62 199.14 94.18 199.8C94.74 200.46 95.42 201 96.19 201.4C96.96 201.79 97.8 202.02 98.66 202.09C99.53 202.15 100.39 202.04 101.21 201.77C102.03 201.5 102.79 201.07 103.44 200.5C104.09 199.93 104.62 199.24 105 198.46L111.52 185.68Z" fill="#FFFFFF" fill-opacity="1.000000" fill-rule="nonzero"/>
		<path id="Vector" d="M112.22 183.22C112.3 182.36 112.2 181.5 111.93 180.68C111.67 179.87 111.25 179.11 110.69 178.45C110.13 177.8 109.45 177.26 108.69 176.87C107.92 176.48 107.08 176.25 106.23 176.18C105.37 176.11 104.51 176.22 103.69 176.49C102.88 176.75 102.12 177.18 101.47 177.74C100.82 178.3 100.29 178.99 99.9 179.76L93.38 192.54C92.98 193.31 92.73 194.14 92.66 195C92.58 195.86 92.67 196.73 92.94 197.56C93.2 198.38 93.62 199.14 94.18 199.8C94.74 200.46 95.42 201 96.19 201.4C96.96 201.79 97.8 202.02 98.66 202.09C99.53 202.15 100.39 202.04 101.21 201.77C102.03 201.5 102.79 201.07 103.44 200.5C104.09 199.93 104.62 199.24 105 198.46L111.52 185.68C111.91 184.91 112.15 184.08 112.22 183.22Z" stroke="#000000" stroke-opacity="1.000000" stroke-width="1.320000" stroke-linejoin="round"/>
		<path id="Vector" d="M123.14 191.6C123.54 190.83 123.78 190 123.85 189.14C123.92 188.29 123.82 187.42 123.56 186.61C123.29 185.79 122.87 185.03 122.31 184.38C121.76 183.72 121.07 183.18 120.31 182.79C119.54 182.4 118.71 182.17 117.85 182.1C116.99 182.04 116.13 182.14 115.32 182.41C114.5 182.68 113.74 183.1 113.09 183.66C112.44 184.23 111.91 184.91 111.52 185.68L105.01 198.46C104.62 199.23 104.38 200.06 104.32 200.91C104.25 201.77 104.35 202.62 104.62 203.44C104.88 204.25 105.3 205.01 105.86 205.66C106.41 206.31 107.09 206.84 107.86 207.23C108.62 207.62 109.45 207.86 110.3 207.92C111.16 207.99 112.02 207.89 112.83 207.62C113.65 207.36 114.4 206.94 115.05 206.38C115.7 205.82 116.24 205.15 116.63 204.38L123.14 191.6Z" fill="#FFFFFF" fill-opacity="1.000000" fill-rule="nonzero"/>
		<path id="Vector" d="M123.85 189.14C123.92 188.29 123.82 187.42 123.56 186.61C123.29 185.79 122.87 185.03 122.31 184.38C121.76 183.72 121.07 183.18 120.31 182.79C119.54 182.4 118.71 182.17 117.85 182.1C116.99 182.04 116.13 182.14 115.32 182.41C114.5 182.68 113.74 183.1 113.09 183.66C112.44 184.23 111.91 184.91 111.52 185.68L105.01 198.46C104.62 199.23 104.38 200.06 104.32 200.91C104.25 201.77 104.35 202.62 104.62 203.44C104.88 204.25 105.3 205.01 105.86 205.66C106.41 206.31 107.09 206.84 107.86 207.23C108.62 207.62 109.45 207.86 110.3 207.92C111.16 207.99 112.02 207.89 112.83 207.62C113.65 207.36 114.4 206.94 115.05 206.38C115.7 205.82 116.24 205.15 116.63 204.38L123.14 191.6C123.54 190.83 123.78 190 123.85 189.14Z" stroke="#000000" stroke-opacity="1.000000" stroke-width="1.320000" stroke-linejoin="round"/>
	</g>
</svg>
